<?xml version="1.0" encoding="UTF-8"?>
<svg id="Layer_2" data-name="Layer 2" xmlns="http://www.w3.org/2000/svg" viewBox="0 0 124.51 255.08">
  <defs>
    <style>
      .cls-1 {
        stroke-width: 5px;
      }

      .cls-1, .cls-2, .cls-3, .cls-4, .cls-5, .cls-6 {
        stroke-miterlimit: 10;
      }

      .cls-1, .cls-2, .cls-3, .cls-4, .cls-7 {
        fill: #fff;
      }

      .cls-1, .cls-2, .cls-4, .cls-8, .cls-6 {
        stroke: #010101;
      }

      .cls-2 {
        stroke-width: 1.37px;
      }

      .cls-3, .cls-5, .cls-7 {
        stroke: #fff;
      }

      .cls-3, .cls-5, .cls-7, .cls-8, .cls-6 {
        stroke-width: 1.07px;
      }

      .cls-9 {
        letter-spacing: -.01em;
      }

      .cls-4 {
        stroke-width: 5.3px;
      }

      .cls-10 {
        fill: #fbb040;
        opacity: .29;
      }

      .cls-11 {
        letter-spacing: 0em;
      }

      .cls-12 {
        letter-spacing: 0em;
      }

      .cls-5, .cls-8 {
        fill: none;
      }

      .cls-7, .cls-8 {
        stroke-linecap: round;
        stroke-linejoin: round;
      }

      .cls-13 {
        letter-spacing: 0em;
      }

      .cls-14 {
        fill: #231f20;
        font-family: MyriadPro-Regular, 'Myriad Pro';
        font-size: 17.31px;
      }

      .cls-15 {
        letter-spacing: -.01em;
      }

      .cls-6 {
        fill: #010101;
      }
    </style>
  </defs>
  <g id="perfume_1" data-name="perfume 1">
    <g id="perfume_3" data-name="perfume 3">
      <rect class="cls-1" x="49.24" y="2.5" width="26.04" height="15.43"/>
      <rect class="cls-1" x="39.69" y="18.89" width="45.14" height="33.75"/>
      <rect class="cls-4" x="2.65" y="41.86" width="119.21" height="210.57" rx="21.52" ry="21.52"/>
      <rect class="cls-10" x="12.29" y="58.89" width="99.93" height="176.5" rx="21.52" ry="21.52"/>
      <ellipse class="cls-6" cx="90.31" cy="114.84" rx="9.42" ry="10.73"/>
      <ellipse class="cls-6" cx="34.2" cy="116.21" rx="9.42" ry="10.73"/>
      <ellipse class="cls-2" cx="63.09" cy="136.16" rx="32.64" ry="30.98"/>
      <ellipse class="cls-6" cx="76.46" cy="131.28" rx="8.34" ry="10.49"/>
      <ellipse class="cls-6" cx="48.55" cy="131.28" rx="8.34" ry="10.49"/>
      <ellipse class="cls-3" cx="48.55" cy="131.67" rx="4.05" ry="6.1"/>
      <ellipse class="cls-3" cx="76.85" cy="131.67" rx="4.05" ry="6.1"/>
      <ellipse class="cls-6" cx="76.85" cy="131.67" rx="2.88" ry="4.24"/>
      <ellipse class="cls-6" cx="48.55" cy="131.28" rx="2.88" ry="4.24"/>
      <ellipse class="cls-5" cx="90.6" cy="114.94" rx="6.78" ry="8.68"/>
      <ellipse class="cls-5" cx="34.69" cy="116.7" rx="6.78" ry="8.68"/>
      <path class="cls-8" d="m62.77,143.97v5.67s-4.37,4.18-6.85,0"/>
      <path class="cls-8" d="m63.35,143.97v5.67s4.37,4.18,6.85,0"/>
      <circle class="cls-7" cx="76.89" cy="131.33" r=".98"/>
      <circle class="cls-7" cx="48.5" cy="130.36" r=".98"/>
      <text class="cls-14" transform="translate(34.2 188.28)"><tspan class="cls-15" x="0" y="0">L</tspan><tspan class="cls-11" x="7.93" y="0">o</tspan><tspan class="cls-9" x="17.43" y="0">r</tspan><tspan class="cls-12" x="22.92" y="0">en</tspan><tspan class="cls-13" x="41.2" y="0">z</tspan><tspan x="48.49" y="0">o</tspan></text>
    </g>
  </g>
</svg>