<?xml version="1.0" encoding="UTF-8"?>
<svg id="Layer_2" data-name="Layer 2" xmlns="http://www.w3.org/2000/svg" viewBox="0 0 394.3 342.12">
  <defs>
    <style>
      .cls-1, .cls-2, .cls-3, .cls-4, .cls-5, .cls-6, .cls-7, .cls-8, .cls-9, .cls-10, .cls-11, .cls-12, .cls-13, .cls-14, .cls-15, .cls-16, .cls-17, .cls-18, .cls-19, .cls-20, .cls-21, .cls-22, .cls-23, .cls-24, .cls-25, .cls-26, .cls-27, .cls-28 {
        stroke-miterlimit: 10;
      }

      .cls-1, .cls-2, .cls-3, .cls-4, .cls-6, .cls-7, .cls-8, .cls-9, .cls-12, .cls-13, .cls-29, .cls-16, .cls-30, .cls-20, .cls-26, .cls-27, .cls-31 {
        fill: #fff;
      }

      .cls-1, .cls-2, .cls-6, .cls-8, .cls-10, .cls-11, .cls-13, .cls-32, .cls-18, .cls-21, .cls-24, .cls-33, .cls-26, .cls-34, .cls-28 {
        stroke: #010101;
      }

      .cls-1, .cls-12, .cls-17, .cls-25 {
        stroke-width: 5px;
      }

      .cls-2 {
        stroke-width: 1.37px;
      }

      .cls-3, .cls-4, .cls-5, .cls-9, .cls-14, .cls-29, .cls-19, .cls-30, .cls-27, .cls-31 {
        stroke: #fff;
      }

      .cls-3, .cls-14, .cls-29, .cls-33, .cls-28 {
        stroke-width: 1.07px;
      }

      .cls-4, .cls-5, .cls-32, .cls-18, .cls-31 {
        stroke-width: 1.05px;
      }

      .cls-5, .cls-14, .cls-32, .cls-19, .cls-22, .cls-33, .cls-34 {
        fill: none;
      }

      .cls-35 {
        letter-spacing: -.01em;
      }

      .cls-6 {
        stroke-width: 1.33px;
      }

      .cls-7 {
        stroke-width: 4px;
      }

      .cls-7, .cls-12, .cls-15, .cls-16, .cls-17, .cls-20, .cls-23, .cls-25 {
        stroke: #231f20;
      }

      .cls-8 {
        stroke-width: 5.3px;
      }

      .cls-9, .cls-11, .cls-30 {
        stroke-width: 6.18px;
      }

      .cls-36 {
        fill: #fbb040;
        opacity: .29;
      }

      .cls-37 {
        font-size: 25.88px;
      }

      .cls-37, .cls-15, .cls-23, .cls-38 {
        fill: #231f20;
      }

      .cls-37, .cls-38 {
        font-family: MyriadPro-Regular, 'Myriad Pro';
      }

      .cls-39 {
        letter-spacing: 0em;
      }

      .cls-40 {
        letter-spacing: 0em;
      }

      .cls-10 {
        stroke-width: 6.74px;
      }

      .cls-10, .cls-11, .cls-18, .cls-21, .cls-24, .cls-28 {
        fill: #010101;
      }

      .cls-13, .cls-19 {
        stroke-width: 1.12px;
      }

      .cls-15, .cls-16, .cls-22, .cls-24 {
        stroke-width: 2.81px;
      }

      .cls-29, .cls-32, .cls-30, .cls-33, .cls-34, .cls-31 {
        stroke-linecap: round;
        stroke-linejoin: round;
      }

      .cls-17 {
        fill: #58595b;
      }

      .cls-20 {
        stroke-width: 4.78px;
      }

      .cls-41 {
        letter-spacing: 0em;
      }

      .cls-42 {
        letter-spacing: 0em;
      }

      .cls-21 {
        stroke-width: 7.3px;
      }

      .cls-22 {
        stroke: #f7941d;
      }

      .cls-23 {
        stroke-width: 2.25px;
      }

      .cls-43 {
        letter-spacing: 0em;
      }

      .cls-44 {
        letter-spacing: -.01em;
      }

      .cls-25 {
        fill: #414042;
      }

      .cls-26 {
        stroke-width: 5.74px;
      }

      .cls-27 {
        stroke-width: 5.61px;
      }

      .cls-38 {
        font-size: 17.31px;
      }

      .cls-45 {
        letter-spacing: -.01em;
      }

      .cls-34 {
        stroke-width: .56px;
      }
    </style>
  </defs>
  <g id="perfume_1" data-name="perfume 1">
    <g id="perfume_1-2" data-name="perfume 1">
      <rect class="cls-25" x="53.5" y="115.46" width="48.36" height="35.37"/>
      <path class="cls-12" d="m133.82,336.7l-55.42,2.89c-.83.04-1.66.04-2.49,0l-51.45-2.83c-12.32-.68-21.97-10.87-21.97-23.21v-146.92c0-12.1,9.28-22.17,21.33-23.16l30.29-2.5c15.33-1.27,30.74-1.3,46.08-.1l34.22,2.68c12.1.95,21.43,11.04,21.43,23.17v146.76c0,12.37-9.68,22.57-22.03,23.21Z"/>
      <rect class="cls-23" x="28.52" y="69.24" width="101.32" height="36.28" rx="4.47" ry="4.47"/>
      <rect class="cls-17" x="57.11" y="105.52" width="40.06" height="8.49" rx="1.05" ry="1.05"/>
      <rect class="cls-15" x="42.49" y="110.46" width="71.2" height="17.8" rx="2.19" ry="2.19"/>
      <rect class="cls-22" x="42.49" y="175.36" width="71.2" height="79.58"/>
      <circle class="cls-16" cx="104.93" cy="245.21" r="2.7"/>
      <path class="cls-7" d="m129.84,325.85s16.23-4.33,15.69-17.32"/>
      <path class="cls-7" d="m15.61,308.53s-1.25,15.16,12.91,15.16"/>
      <path class="cls-7" d="m134.16,153.17s8.66.54,8.66,10.83"/>
      <path class="cls-7" d="m25.89,153.17s-8.66,4.33-7.58,10.83"/>
      <ellipse class="cls-21" cx="96.36" cy="199.18" rx="6.3" ry="7.19"/>
      <ellipse class="cls-11" cx="58.79" cy="200.1" rx="6.3" ry="7.19"/>
      <ellipse class="cls-13" cx="78.13" cy="213.46" rx="21.85" ry="20.74"/>
      <ellipse class="cls-24" cx="87.08" cy="210.19" rx="5.59" ry="7.02"/>
      <ellipse class="cls-24" cx="68.4" cy="210.19" rx="5.59" ry="7.02"/>
      <ellipse class="cls-27" cx="68.4" cy="210.45" rx="2.71" ry="4.08"/>
      <ellipse class="cls-9" cx="87.34" cy="210.45" rx="2.71" ry="4.08"/>
      <ellipse class="cls-10" cx="87.34" cy="210.45" rx="1.93" ry="2.84"/>
      <ellipse class="cls-10" cx="68.4" cy="210.19" rx="1.93" ry="2.84"/>
      <ellipse class="cls-19" cx="96.56" cy="199.25" rx="4.54" ry="5.81"/>
      <ellipse class="cls-19" cx="59.12" cy="200.43" rx="4.54" ry="5.81"/>
      <path class="cls-34" d="m77.92,218.69v3.79s-2.93,2.8-4.58,0"/>
      <path class="cls-34" d="m78.31,218.69v3.79s2.93,2.8,4.58,0"/>
      <circle class="cls-30" cx="87.38" cy="210.23" r=".65"/>
      <circle class="cls-30" cx="68.37" cy="209.57" r=".65"/>
      <text class="cls-37" transform="translate(32.49 283.08)"><tspan class="cls-44" x="0" y="0">L</tspan><tspan x="11.85" y="0">o</tspan><tspan class="cls-43" x="26.06" y="0">r</tspan><tspan x="34.27" y="0">en</tspan><tspan class="cls-41" x="61.6" y="0">z</tspan><tspan x="72.5" y="0">o</tspan></text>
    </g>
    <g id="perfume_2" data-name="perfume 2">
      <rect class="cls-26" x="175.53" y="2.87" width="80.27" height="67.56" rx="15.32" ry="15.32"/>
      <rect class="cls-20" x="164.94" y="54.44" width="101.45" height="281.6" rx="14.14" ry="14.14"/>
      <ellipse class="cls-18" cx="242.73" cy="153.7" rx="9.17" ry="10.45"/>
      <ellipse class="cls-18" cx="188.1" cy="155.03" rx="9.17" ry="10.45"/>
      <ellipse class="cls-6" cx="216.22" cy="174.46" rx="31.78" ry="30.16"/>
      <ellipse class="cls-18" cx="229.24" cy="169.71" rx="8.12" ry="10.21"/>
      <ellipse class="cls-18" cx="202.06" cy="169.71" rx="8.12" ry="10.21"/>
      <ellipse class="cls-4" cx="202.06" cy="170.09" rx="3.94" ry="5.94"/>
      <ellipse class="cls-4" cx="229.62" cy="170.09" rx="3.94" ry="5.94"/>
      <ellipse class="cls-18" cx="229.62" cy="170.09" rx="2.8" ry="4.13"/>
      <ellipse class="cls-18" cx="202.06" cy="169.71" rx="2.8" ry="4.13"/>
      <ellipse class="cls-5" cx="243.01" cy="153.79" rx="6.6" ry="8.46"/>
      <ellipse class="cls-5" cx="188.57" cy="155.5" rx="6.6" ry="8.46"/>
      <path class="cls-32" d="m215.92,182.06v5.52s-4.26,4.07-6.66,0"/>
      <path class="cls-32" d="m216.48,182.06v5.52s4.26,4.07,6.66,0"/>
      <circle class="cls-31" cx="229.66" cy="169.75" r=".95"/>
      <circle class="cls-31" cx="202.02" cy="168.8" r=".95"/>
      <text class="cls-38" transform="translate(188.55 229.41)"><tspan class="cls-45" x="0" y="0">L</tspan><tspan class="cls-39" x="7.93" y="0">o</tspan><tspan class="cls-35" x="17.43" y="0">r</tspan><tspan class="cls-40" x="22.92" y="0">en</tspan><tspan class="cls-42" x="41.2" y="0">z</tspan><tspan x="48.49" y="0">o</tspan></text>
      <text class="cls-38" transform="translate(303.99 270.55)"><tspan class="cls-45" x="0" y="0">L</tspan><tspan class="cls-39" x="7.93" y="0">o</tspan><tspan class="cls-35" x="17.43" y="0">r</tspan><tspan class="cls-40" x="22.92" y="0">en</tspan><tspan class="cls-42" x="41.2" y="0">z</tspan><tspan x="48.49" y="0">o</tspan></text>
    </g>
    <g id="perfume_3" data-name="perfume 3">
      <rect class="cls-1" x="319.03" y="84.77" width="26.04" height="15.43"/>
      <rect class="cls-1" x="309.47" y="101.16" width="45.14" height="33.75"/>
      <rect class="cls-8" x="272.44" y="124.13" width="119.21" height="210.57" rx="21.52" ry="21.52"/>
      <rect class="cls-36" x="282.08" y="141.16" width="99.93" height="176.5" rx="21.52" ry="21.52"/>
      <ellipse class="cls-28" cx="360.1" cy="197.11" rx="9.42" ry="10.73"/>
      <ellipse class="cls-28" cx="303.99" cy="198.48" rx="9.42" ry="10.73"/>
      <ellipse class="cls-2" cx="332.87" cy="218.43" rx="32.64" ry="30.98"/>
      <ellipse class="cls-28" cx="346.24" cy="213.55" rx="8.34" ry="10.49"/>
      <ellipse class="cls-28" cx="318.33" cy="213.55" rx="8.34" ry="10.49"/>
      <ellipse class="cls-3" cx="318.33" cy="213.94" rx="4.05" ry="6.1"/>
      <ellipse class="cls-3" cx="346.63" cy="213.94" rx="4.05" ry="6.1"/>
      <ellipse class="cls-28" cx="346.63" cy="213.94" rx="2.88" ry="4.24"/>
      <ellipse class="cls-28" cx="318.33" cy="213.55" rx="2.88" ry="4.24"/>
      <ellipse class="cls-14" cx="360.39" cy="197.21" rx="6.78" ry="8.68"/>
      <ellipse class="cls-14" cx="304.48" cy="198.96" rx="6.78" ry="8.68"/>
      <path class="cls-33" d="m332.56,226.24v5.67s-4.37,4.18-6.85,0"/>
      <path class="cls-33" d="m333.14,226.24v5.67s4.37,4.18,6.85,0"/>
      <circle class="cls-29" cx="346.68" cy="213.6" r=".98"/>
      <circle class="cls-29" cx="318.29" cy="212.63" r=".98"/>
      <text class="cls-38" transform="translate(303.99 270.55)"><tspan class="cls-45" x="0" y="0">L</tspan><tspan class="cls-39" x="7.93" y="0">o</tspan><tspan class="cls-35" x="17.43" y="0">r</tspan><tspan class="cls-40" x="22.92" y="0">en</tspan><tspan class="cls-42" x="41.2" y="0">z</tspan><tspan x="48.49" y="0">o</tspan></text>
    </g>
  </g>
</svg>