<?xml version="1.0" encoding="UTF-8"?>
<svg id="Layer_2" data-name="Layer 2" xmlns="http://www.w3.org/2000/svg" viewBox="0 0 232.93 270.03">
  <defs>
    <style>
      .cls-1, .cls-2, .cls-3, .cls-4 {
        fill: #fff;
      }

      .cls-1, .cls-5, .cls-6, .cls-7, .cls-4 {
        stroke-width: .92px;
      }

      .cls-1, .cls-5, .cls-7, .cls-3 {
        stroke-miterlimit: 10;
      }

      .cls-1, .cls-7, .cls-4 {
        stroke: #fff;
      }

      .cls-2 {
        stroke: #231f20;
        stroke-width: 4.28px;
      }

      .cls-2, .cls-6, .cls-4 {
        stroke-linecap: round;
        stroke-linejoin: round;
      }

      .cls-8 {
        letter-spacing: -.01em;
      }

      .cls-5 {
        fill: #010101;
      }

      .cls-5, .cls-6, .cls-3 {
        stroke: #010101;
      }

      .cls-9 {
        letter-spacing: 0em;
      }

      .cls-6, .cls-7 {
        fill: none;
      }

      .cls-10 {
        letter-spacing: 0em;
      }

      .cls-11 {
        fill: #231f20;
        font-family: MyriadPro-Regular, 'Myriad Pro';
        font-size: 25.08px;
      }

      .cls-12 {
        letter-spacing: 0em;
      }

      .cls-3 {
        stroke-width: 1.17px;
      }
    </style>
  </defs>
  <g id="art_board" data-name="art board">
    <g id="perfume_4" data-name="perfume 4">
      <polygon class="cls-2" points="207.37 26.56 2.14 26.56 38.95 2.14 230.79 2.14 207.37 26.56"/>
      <rect class="cls-2" x="2.14" y="27.47" width="207.46" height="240.42"/>
      <polygon class="cls-2" points="227.2 243.67 209.6 267.89 209.6 26.07 230.79 2.14 227.2 243.67"/>
      <g>
        <ellipse class="cls-5" cx="135.89" cy="119.04" rx="8.06" ry="9.19"/>
        <ellipse class="cls-5" cx="87.88" cy="120.21" rx="8.06" ry="9.19"/>
        <ellipse class="cls-3" cx="112.59" cy="137.29" rx="27.93" ry="26.51"/>
        <ellipse class="cls-5" cx="124.03" cy="133.11" rx="7.14" ry="8.98"/>
        <ellipse class="cls-5" cx="100.15" cy="133.11" rx="7.14" ry="8.98"/>
        <ellipse class="cls-1" cx="100.15" cy="133.45" rx="3.47" ry="5.22"/>
        <ellipse class="cls-1" cx="124.37" cy="133.45" rx="3.47" ry="5.22"/>
        <ellipse class="cls-5" cx="124.37" cy="133.45" rx="2.46" ry="3.63"/>
        <ellipse class="cls-5" cx="100.15" cy="133.11" rx="2.46" ry="3.63"/>
        <ellipse class="cls-7" cx="136.14" cy="119.13" rx="5.8" ry="7.43"/>
        <ellipse class="cls-7" cx="88.29" cy="120.63" rx="5.8" ry="7.43"/>
        <path class="cls-6" d="m112.32,143.97v4.85s-3.74,3.58-5.86,0"/>
        <path class="cls-6" d="m112.82,143.97v4.85s3.74,3.58,5.86,0"/>
        <circle class="cls-4" cx="124.41" cy="133.15" r=".84"/>
        <circle class="cls-4" cx="100.11" cy="132.32" r=".84"/>
      </g>
      <text class="cls-11" transform="translate(67.18 187.17)"><tspan class="cls-8" x="0" y="0">L</tspan><tspan x="11.48" y="0">o</tspan><tspan class="cls-9" x="25.25" y="0">r</tspan><tspan class="cls-12" x="33.2" y="0">en</tspan><tspan class="cls-10" x="59.68" y="0">z</tspan><tspan x="70.24" y="0">o</tspan></text>
    </g>
  </g>
</svg>