<?xml version="1.0" encoding="UTF-8"?>
<svg id="Layer_2" data-name="Layer 2" xmlns="http://www.w3.org/2000/svg" viewBox="0 0 158.35 255.03">
  <defs>
    <style>
      .cls-1 {
        stroke-width: 4px;
      }

      .cls-1, .cls-2, .cls-3, .cls-4, .cls-5, .cls-6, .cls-7, .cls-8, .cls-9, .cls-10, .cls-11, .cls-12, .cls-13, .cls-14 {
        stroke-miterlimit: 10;
      }

      .cls-1, .cls-2, .cls-5, .cls-6, .cls-8, .cls-15, .cls-14 {
        fill: #fff;
      }

      .cls-1, .cls-5, .cls-7, .cls-8, .cls-13 {
        stroke: #231f20;
      }

      .cls-2, .cls-4, .cls-15 {
        stroke-width: 6.18px;
      }

      .cls-2, .cls-9, .cls-15, .cls-14 {
        stroke: #fff;
      }

      .cls-16 {
        font-family: MyriadPro-Regular, 'Myriad Pro';
        font-size: 25.88px;
      }

      .cls-16, .cls-7 {
        fill: #231f20;
      }

      .cls-3 {
        stroke-width: 6.74px;
      }

      .cls-3, .cls-4, .cls-6, .cls-10, .cls-12, .cls-17 {
        stroke: #010101;
      }

      .cls-3, .cls-4, .cls-10, .cls-12 {
        fill: #010101;
      }

      .cls-5, .cls-13 {
        stroke-width: 5px;
      }

      .cls-6, .cls-9 {
        stroke-width: 1.12px;
      }

      .cls-7, .cls-8, .cls-11, .cls-12 {
        stroke-width: 2.81px;
      }

      .cls-9, .cls-11, .cls-17 {
        fill: none;
      }

      .cls-15, .cls-17 {
        stroke-linecap: round;
        stroke-linejoin: round;
      }

      .cls-18 {
        letter-spacing: 0em;
      }

      .cls-10 {
        stroke-width: 7.3px;
      }

      .cls-11 {
        stroke: #029094;
      }

      .cls-19 {
        letter-spacing: 0em;
      }

      .cls-20 {
        letter-spacing: -.01em;
      }

      .cls-13 {
        fill: #414042;
      }

      .cls-14 {
        stroke-width: 5.61px;
      }

      .cls-17 {
        stroke-width: .56px;
      }
    </style>
  </defs>
  <g id="perfume_1" data-name="perfume 1">
    <g id="perfume_1-2" data-name="perfume 1">
      <rect class="cls-13" x="53.5" y="28.37" width="48.36" height="35.37"/>
      <path class="cls-5" d="m133.82,249.61l-55.42,2.89c-.83.04-1.66.04-2.49,0l-51.45-2.83c-12.32-.68-21.97-10.87-21.97-23.21V79.54c0-12.1,9.28-22.17,21.33-23.16l30.29-2.5c15.33-1.27,30.74-1.3,46.08-.1l34.22,2.68c12.1.95,21.43,11.04,21.43,23.17v146.76c0,12.37-9.68,22.57-22.03,23.21Z"/>
      <rect class="cls-5" x="57.11" y="2.5" width="40.06" height="24.42" rx="1.05" ry="1.05"/>
      <rect class="cls-7" x="42.49" y="23.37" width="71.2" height="17.8" rx="2.19" ry="2.19"/>
      <rect class="cls-11" x="42.49" y="88.27" width="71.2" height="79.58"/>
      <circle class="cls-8" cx="104.93" cy="158.12" r="2.7"/>
      <path class="cls-1" d="m129.84,238.76s16.23-4.33,15.69-17.32"/>
      <path class="cls-1" d="m15.61,221.44s-1.25,15.16,12.91,15.16"/>
      <path class="cls-1" d="m134.16,66.08s8.66.54,8.66,10.83"/>
      <path class="cls-1" d="m25.89,66.08s-8.66,4.33-7.58,10.83"/>
      <ellipse class="cls-10" cx="96.36" cy="112.09" rx="6.3" ry="7.19"/>
      <ellipse class="cls-4" cx="58.79" cy="113.01" rx="6.3" ry="7.19"/>
      <ellipse class="cls-6" cx="78.13" cy="126.37" rx="21.85" ry="20.74"/>
      <ellipse class="cls-12" cx="87.08" cy="123.1" rx="5.59" ry="7.02"/>
      <ellipse class="cls-12" cx="68.4" cy="123.1" rx="5.59" ry="7.02"/>
      <ellipse class="cls-14" cx="68.4" cy="123.36" rx="2.71" ry="4.08"/>
      <ellipse class="cls-2" cx="87.34" cy="123.36" rx="2.71" ry="4.08"/>
      <ellipse class="cls-3" cx="87.34" cy="123.36" rx="1.93" ry="2.84"/>
      <ellipse class="cls-3" cx="68.4" cy="123.1" rx="1.93" ry="2.84"/>
      <ellipse class="cls-9" cx="96.56" cy="112.16" rx="4.54" ry="5.81"/>
      <ellipse class="cls-9" cx="59.12" cy="113.33" rx="4.54" ry="5.81"/>
      <path class="cls-17" d="m77.92,131.6v3.79s-2.93,2.8-4.58,0"/>
      <path class="cls-17" d="m78.31,131.6v3.79s2.93,2.8,4.58,0"/>
      <circle class="cls-15" cx="87.38" cy="123.13" r=".65"/>
      <circle class="cls-15" cx="68.37" cy="122.48" r=".65"/>
      <text class="cls-16" transform="translate(32.49 195.99)"><tspan class="cls-20" x="0" y="0">L</tspan><tspan x="11.85" y="0">o</tspan><tspan class="cls-19" x="26.06" y="0">r</tspan><tspan x="34.27" y="0">en</tspan><tspan class="cls-18" x="61.6" y="0">z</tspan><tspan x="72.5" y="0">o</tspan></text>
    </g>
  </g>
</svg>