<?xml version="1.0" encoding="UTF-8"?>
<svg id="Layer_2" data-name="Layer 2" xmlns="http://www.w3.org/2000/svg" viewBox="0 0 280.55 272.42">
  <defs>
    <style>
      .cls-1 {
        fill: #aaa9af;
        stroke: #fff;
        stroke-miterlimit: 10;
        stroke-width: 9.26px;
      }

      .cls-2 {
        fill: #d3d3d5;
      }
    </style>
  </defs>
  <g id="Layer_1-2" data-name="Layer 1">
    <g>
      <path class="cls-2" d="m265.99,88.28l-95.01,95.01-68.05-73.17-24.41-26.25c-8.91-9.57-13.31-21.79-13.31-33.98,0-13.41,5.33-26.79,15.87-36.59,20.11-18.7,51.86-17.55,70.56,2.56l21.95,23.6,21.79-21.79c9.71-9.71,22.51-14.57,35.31-14.57s25.59,4.86,35.3,14.57c19.42,19.42,19.42,51.2,0,70.61Z"/>
      <path class="cls-1" d="m244.96,152.02l-113.73,113.73-81.46-87.58-29.21-31.42c-10.66-11.46-15.93-26.08-15.93-40.67,0-16.05,6.38-32.07,18.99-43.8,24.07-22.38,62.08-21,84.46,3.06l26.27,28.25,26.08-26.08c11.62-11.62,26.94-17.43,42.26-17.43s30.64,5.81,42.26,17.43c23.24,23.24,23.24,61.28,0,84.52Z"/>
    </g>
  </g>
</svg>