<?xml version="1.0" encoding="UTF-8"?>
<svg id="Layer_2" data-name="Layer 2" xmlns="http://www.w3.org/2000/svg" viewBox="0 0 269 269">
  <defs>
    <style>
      .cls-1 {
        fill: #fff;
      }

      .cls-2 {
        fill: #aaa9af;
      }
    </style>
  </defs>
  <g id="Layer_1-2" data-name="Layer 1">
    <g>
      <path class="cls-2" d="m134.98,170.14c41.64,0,77.26,25.74,91.82,62.18,25.98-24.52,42.2-59.28,42.2-97.82C269,60.22,208.78,0,134.5,0S0,60.22,0,134.5c0,38.89,16.51,73.91,42.89,98.47,14.4-36.78,50.2-62.82,92.08-62.82Zm-.95-128.32c27.3,0,49.43,22.13,49.43,49.43s-22.13,49.43-49.43,49.43-49.43-22.13-49.43-49.43,22.13-49.43,49.43-49.43Z"/>
      <circle class="cls-1" cx="134.02" cy="91.25" r="49.43"/>
      <path class="cls-1" d="m226.8,232.32c-14.57-36.44-50.19-62.18-91.82-62.18s-77.68,26.05-92.08,62.82c24.02,22.35,56.21,36.03,91.61,36.03s68.21-13.94,92.3-36.68Z"/>
    </g>
  </g>
</svg>