<?xml version="1.0" encoding="UTF-8"?>
<svg id="Layer_2" data-name="Layer 2" xmlns="http://www.w3.org/2000/svg" viewBox="0 0 268.42 208">
  <defs>
    <style>
      .cls-1 {
        fill: #fff;
      }

      .cls-2 {
        fill: #d4d1d8;
      }

      .cls-3 {
        fill: #aaa9af;
      }
    </style>
  </defs>
  <g id="Layer_1-2" data-name="Layer 1">
    <g>
      <g>
        <path class="cls-3" d="m0,53.3v.15s.1-.05.15-.07c-.05-.03-.1-.05-.15-.08Z"/>
        <path class="cls-3" d="m236.06,63.77c0-3.57,1-6.89,2.71-9.75-19.69.97-36.2,2.78-48.87,4.51-60.16,8.19-84.2,21.28-125.65,16.18-13.99-1.72-26.48-5.08-37.26-9.01.39,1.51.62,3.09.62,4.73,0,10.51-8.52,19.04-19.04,19.04-3.09,0-5.99-.75-8.57-2.05v85.01c2.58-1.3,5.48-2.05,8.57-2.05,10.51,0,19.04,8.52,19.04,19.04,0,5.66-2.48,10.73-6.41,14.22,12.36,2.61,27.24,4.58,44,4.35,51.78-.73,74.27-21.8,123.74-23.8,12.58-.51,29.33.12,49.51,4.7-.31-1.36-.49-2.77-.49-4.23,0-10.51,8.52-19.04,19.04-19.04,4.29,0,8.24,1.44,11.42,3.83v-92.1c-3.43,3.37-8.13,5.45-13.33,5.45-10.51,0-19.04-8.52-19.04-19.04Z"/>
        <path class="cls-2" d="m237.96,184.66c0,1.45.18,2.86.49,4.23,9.29,2.11,19.3,5.05,29.97,9.1v-28.53c-3.18-2.4-7.13-3.83-11.42-3.83-10.51,0-19.04,8.52-19.04,19.04Z"/>
        <path class="cls-2" d="m238.77,54.03c-1.71,2.85-2.71,6.18-2.71,9.75,0,10.51,8.52,19.04,19.04,19.04,5.19,0,9.89-2.08,13.33-5.45v-24.05c-10.54,0-20.45.27-29.66.73Z"/>
        <path class="cls-2" d="m27.6,189.42c0-10.51-8.52-19.04-19.04-19.04-3.09,0-5.99.75-8.57,2.05v25.55c5.78,1.86,12.93,3.9,21.2,5.65,3.92-3.49,6.41-8.56,6.41-14.22Z"/>
        <path class="cls-2" d="m27.6,70.44c0-1.64-.23-3.21-.62-4.73-10.72-3.91-19.74-8.37-26.84-12.33-.05.02-.1.05-.15.07v33.97c2.58,1.3,5.48,2.05,8.57,2.05,10.51,0,19.04-8.52,19.04-19.04Z"/>
      </g>
      <path class="cls-2" d="m27.6,0l-9.52,56.16s72.75,18.09,103.48,0c30.73-18.09,100.96-16.09,100.96-16.09-27.33-18.72-50.51-24.19-66.43-25.79-27.96-2.81-42.68,5.42-74.24,1.9C58.02,13.53,39.32,5.82,27.6,0Z"/>
    </g>
    <circle class="cls-1" cx="122" cy="131" r="40"/>
  </g>
</svg>